# xmcd CD database file
#
# Track frame offsets:
#	150
#	16017
#	28899
#	48308
#	63327
#	83544
#	96052
#	110768
#	132000
#	154043
#	174321
#
# Disc length: 2550 seconds
#
# Revision: 0
# Processed by: cddbd v1.5.1PL0 Copyright (c) Steve Scherf et al.
# Submitted via: CDex 1.51
#
DISCID=7c09f40b
DTITLE=La banda de la luna azul - Zumbando
DYEAR=2005
DGENRE=Blues
TTITLE0=Ruido
TTITLE1=Muy lejos te vas
TTITLE2=Candombe satelital
TTITLE3=Lailiaarai
TTITLE4=Conmigo no bailas
TTITLE5=Que vuelva ella
TTITLE6=Zumbando II - Cuple de cuna
TTITLE7=Nombre de bienes
TTITLE8=Bajo las tablas
TTITLE9=Pa'l Aguatero
TTITLE10=La nueva conquista
EXTD=YEAR: 2005
EXTT0=
EXTT1=
EXTT2=
EXTT3=
EXTT4=
EXTT5=
EXTT6=
EXTT7=
EXTT8=
EXTT9=
EXTT10=
PLAYORDER=
